<svg width="38" height="37" viewBox="0 0 38 37" fill="none" xmlns="http://www.w3.org/2000/svg"
                        onmouseover="this.style.fill='blue'"
                        onmouseout="this.style.fill='white'">
                        <path
                            d="M35.9273 9.72673L21.9018 0.831814C21.0368 0.288798 20.0293 0 19 0C17.9707 0 16.9632 0.288798 16.0982 0.831814L2.07273 9.72673C1.45396 10.0857 0.939106 10.592 0.576531 11.1979C0.213957 11.8038 0.0155662 12.4895 0 13.1905V37H15.5455V27.6343H22.4545V37H38V13.1905C37.9844 12.4895 37.786 11.8038 37.4235 11.1979C37.0609 10.592 36.546 10.0857 35.9273 9.72673ZM34.5455 33.6371H25.9091V24.2714H12.0909V33.6371H3.45455V13.1905C3.46716 13.0534 3.51487 12.9215 3.59332 12.807C3.67177 12.6924 3.77846 12.5988 3.90364 12.5348L17.9291 3.63985C18.2365 3.45885 18.5889 3.36316 18.9482 3.36316C19.3074 3.36316 19.6599 3.45885 19.9673 3.63985L33.9927 12.5348C34.1179 12.5988 34.2246 12.6924 34.303 12.807C34.3815 12.9215 34.4292 13.0534 34.4418 13.1905L34.5455 33.6371Z"
                            fill="white" />
                    </svg>